<svg width="160" height="32" viewBox="0 0 160 32" fill="none" xmlns="http://www.w3.org/2000/svg">
<g clip-path="url(#clip0_13_2)">
<path fill-rule="evenodd" clip-rule="evenodd" d="M29.6159 5.10649C27.2653 2.00519 23.5287 0 19.3208 0H12.8805C5.7668 0 0 5.73075 0 12.8V19.2C0 26.2692 5.7668 32 12.8805 32H19.3208C26.4345 32 32.2013 26.2692 32.2013 19.2V12.8C32.2013 11.1007 31.868 9.47875 31.263 7.99514L16.4341 22.7314C15.8053 23.3562 14.7859 23.3562 14.1571 22.7314L6.91183 15.5314C6.28306 14.9065 6.28306 13.8935 6.91183 13.2686C7.5406 12.6438 8.56003 12.6438 9.1888 13.2686L15.2956 19.3373L29.6159 5.10649Z" fill="#228BE6"/>
<path d="M42.2678 28V4.72726H57.7679V8.78408H47.2173V14.3295H56.7391V18.3864H47.2173V28H42.2678Z" fill="#228BE6"/>
<path d="M65.2209 28.2841C63.8873 28.2841 62.6795 27.9432 61.5974 27.2614C60.5229 26.572 59.6694 25.5606 59.0369 24.2273C58.412 22.8864 58.0996 21.2424 58.0996 19.2954C58.0996 17.2954 58.4235 15.6326 59.0712 14.3068C59.7189 12.9735 60.5801 11.9773 61.6545 11.3182C62.7367 10.6515 63.9216 10.3182 65.2095 10.3182C66.1925 10.3182 67.0117 10.4848 67.6671 10.8182C68.3301 11.1439 68.8635 11.553 69.2674 12.0454C69.6789 12.5303 69.9914 13.0076 70.2047 13.4773H70.3533V10.5454H75.2114V28H70.4105V25.2045H70.2047C69.9761 25.6894 69.6522 26.1704 69.2331 26.6477C68.8216 27.1174 68.2844 27.5076 67.6214 27.8182C66.966 28.1288 66.1659 28.2841 65.2209 28.2841ZM66.7641 24.4318C67.549 24.4318 68.212 24.2197 68.753 23.7954C69.3017 23.3636 69.7208 22.7614 70.0104 21.9886C70.3076 21.2159 70.4562 20.3106 70.4562 19.2727C70.4562 18.2348 70.3114 17.3333 70.0218 16.5682C69.7323 15.803 69.3131 15.2121 68.7645 14.7954C68.2158 14.3788 67.549 14.1704 66.7641 14.1704C65.9639 14.1704 65.2895 14.3864 64.7408 14.8182C64.1922 15.25 63.7769 15.8485 63.4949 16.6136C63.2129 17.3788 63.072 18.2651 63.072 19.2727C63.072 20.2879 63.2129 21.1856 63.4949 21.9659C63.7845 22.7386 64.1998 23.3447 64.7408 23.7841C65.2895 24.2159 65.9639 24.4318 66.7641 24.4318Z" fill="#228BE6"/>
<path d="M92.8578 15.5227L88.3998 15.7954C88.3236 15.4167 88.1598 15.0757 87.9083 14.7727C87.6568 14.4621 87.3253 14.2159 86.9138 14.0341C86.51 13.8447 86.0261 13.75 85.4621 13.75C84.7077 13.75 84.0714 13.9091 83.5532 14.2273C83.035 14.5379 82.7759 14.9545 82.7759 15.4773C82.7759 15.8939 82.9436 16.2462 83.2789 16.5341C83.6142 16.822 84.1895 17.053 85.0049 17.2273L88.1827 17.8636C89.8896 18.2121 91.1623 18.7727 92.0005 19.5454C92.8388 20.3182 93.2579 21.3333 93.2579 22.5909C93.2579 23.7348 92.9188 24.7386 92.2406 25.6023C91.57 26.4659 90.6479 27.1401 89.4743 27.625C88.3084 28.1023 86.9634 28.3409 85.4393 28.3409C83.115 28.3409 81.2632 27.8598 79.8839 26.8977C78.5123 25.928 77.7083 24.6098 77.4721 22.9432L82.2615 22.6932C82.4063 23.3977 82.7569 23.9356 83.3132 24.3068C83.8695 24.6704 84.582 24.8523 85.4507 24.8523C86.3042 24.8523 86.99 24.6894 87.5082 24.3636C88.0341 24.0303 88.3008 23.6023 88.3084 23.0795C88.3008 22.6401 88.1141 22.2803 87.7483 22C87.3825 21.7121 86.8186 21.4924 86.0565 21.3409L83.016 20.7386C81.3013 20.3977 80.0249 19.8068 79.1867 18.9659C78.356 18.125 77.9407 17.053 77.9407 15.75C77.9407 14.6288 78.2455 13.6629 78.8552 12.8523C79.4724 12.0417 80.3374 11.4167 81.4499 10.9773C82.5702 10.5379 83.8809 10.3182 85.3821 10.3182C87.5997 10.3182 89.3448 10.7841 90.6174 11.7159C91.8976 12.6477 92.6444 13.9167 92.8578 15.5227Z" fill="#228BE6"/>
<path d="M104.697 10.5454V14.1818H94.124V10.5454H104.697ZM96.5245 6.36363H101.394V22.6364C101.394 23.0833 101.463 23.4318 101.6 23.6818C101.737 23.9242 101.927 24.0947 102.171 24.1932C102.423 24.2917 102.712 24.3409 103.04 24.3409C103.269 24.3409 103.497 24.322 103.726 24.2841C103.954 24.2386 104.13 24.2045 104.252 24.1818L105.017 27.7841C104.774 27.8598 104.431 27.947 103.989 28.0454C103.547 28.1515 103.009 28.2159 102.377 28.2386C101.203 28.2841 100.175 28.1288 99.2907 27.7727C98.4143 27.4167 97.7323 26.8636 97.2446 26.1136C96.7569 25.3636 96.5168 24.4167 96.5245 23.2727V6.36363Z" fill="#228BE6"/>
<path d="M113.185 28.2841C111.851 28.2841 110.644 27.9432 109.561 27.2614C108.487 26.572 107.633 25.5606 107.001 24.2273C106.376 22.8864 106.064 21.2424 106.064 19.2954C106.064 17.2954 106.388 15.6326 107.035 14.3068C107.683 12.9735 108.544 11.9773 109.619 11.3182C110.701 10.6515 111.886 10.3182 113.174 10.3182C114.157 10.3182 114.976 10.4848 115.631 10.8182C116.294 11.1439 116.828 11.553 117.231 12.0454C117.643 12.5303 117.955 13.0076 118.169 13.4773H118.317V10.5454H123.175V28H118.375V25.2045H118.169C117.94 25.6894 117.616 26.1704 117.197 26.6477C116.786 27.1174 116.248 27.5076 115.585 27.8182C114.93 28.1288 114.13 28.2841 113.185 28.2841ZM114.728 24.4318C115.513 24.4318 116.176 24.2197 116.717 23.7954C117.266 23.3636 117.685 22.7614 117.974 21.9886C118.272 21.2159 118.42 20.3106 118.42 19.2727C118.42 18.2348 118.275 17.3333 117.986 16.5682C117.696 15.803 117.277 15.2121 116.729 14.7954C116.18 14.3788 115.513 14.1704 114.728 14.1704C113.928 14.1704 113.254 14.3864 112.705 14.8182C112.156 15.25 111.741 15.8485 111.459 16.6136C111.177 17.3788 111.036 18.2651 111.036 19.2727C111.036 20.2879 111.177 21.1856 111.459 21.9659C111.749 22.7386 112.164 23.3447 112.705 23.7841C113.254 24.2159 113.928 24.4318 114.728 24.4318Z" fill="#228BE6"/>
<path d="M140.822 15.5227L136.364 15.7954C136.288 15.4167 136.124 15.0757 135.872 14.7727C135.621 14.4621 135.289 14.2159 134.878 14.0341C134.474 13.8447 133.99 13.75 133.426 13.75C132.672 13.75 132.035 13.9091 131.517 14.2273C130.999 14.5379 130.74 14.9545 130.74 15.4773C130.74 15.8939 130.908 16.2462 131.243 16.5341C131.578 16.822 132.154 17.053 132.969 17.2273L136.147 17.8636C137.854 18.2121 139.126 18.7727 139.965 19.5454C140.803 20.3182 141.222 21.3333 141.222 22.5909C141.222 23.7348 140.883 24.7386 140.205 25.6023C139.534 26.4659 138.612 27.1401 137.438 27.625C136.272 28.1023 134.927 28.3409 133.403 28.3409C131.079 28.3409 129.227 27.8598 127.848 26.8977C126.476 25.928 125.672 24.6098 125.436 22.9432L130.226 22.6932C130.37 23.3977 130.721 23.9356 131.277 24.3068C131.833 24.6704 132.546 24.8523 133.415 24.8523C134.268 24.8523 134.954 24.6894 135.472 24.3636C135.998 24.0303 136.265 23.6023 136.272 23.0795C136.265 22.6401 136.078 22.2803 135.712 22C135.347 21.7121 134.783 21.4924 134.021 21.3409L130.98 20.7386C129.265 20.3977 127.989 19.8068 127.151 18.9659C126.32 18.125 125.905 17.053 125.905 15.75C125.905 14.6288 126.21 13.6629 126.819 12.8523C127.436 12.0417 128.301 11.4167 129.414 10.9773C130.534 10.5379 131.845 10.3182 133.346 10.3182C135.564 10.3182 137.309 10.7841 138.581 11.7159C139.862 12.6477 140.608 13.9167 140.822 15.5227Z" fill="#228BE6"/>
<path d="M147.735 22.9773L147.746 17.1704H148.455L154.079 10.5454H159.669L152.113 19.3182H150.958L147.735 22.9773ZM143.323 28V4.72726H148.192V28H143.323ZM154.296 28L149.129 20.3977L152.376 16.9773L160 28H154.296Z" fill="#228BE6"/>
</g>
<defs>
<clipPath id="clip0_13_2">
<rect width="160" height="32" fill="white"/>
</clipPath>
</defs>
</svg>
