<svg width="40" height="40" viewBox="0 0 40 40" fill="none" xmlns="http://www.w3.org/2000/svg">
<path d="M19.3894 10C18.6518 10.6873 18.0602 11.5161 17.6498 12.4369C17.2395 13.3578 17.0189 14.3519 17.0011 15.3599C16.9833 16.3679 17.1687 17.3691 17.5463 18.3039C17.9239 19.2386 18.4859 20.0878 19.1988 20.8006C19.9117 21.5135 20.7609 22.0755 21.6957 22.4531C22.6305 22.8306 23.6318 23.016 24.6399 22.9983C25.6479 22.9805 26.642 22.7599 27.5629 22.3495C28.4839 21.9392 29.3127 21.3476 30 20.6101C29.6817 25.8501 25.3313 30 20.011 30C14.4815 30 10 25.5187 10 19.9905C10 14.6704 14.1502 10.3203 19.3894 10Z" fill="#495057"/>
</svg>
